<?xml version="1.0" encoding="utf-8"?>
<!-- Generator: Adobe Illustrator 23.0.1, SVG Export Plug-In . SVG Version: 6.00 Build 0)  -->
<svg version="1.1" id="Layer_1" focusable="false" xmlns="http://www.w3.org/2000/svg" xmlns:xlink="http://www.w3.org/1999/xlink"
	 x="0px" y="0px" viewBox="0 0 612 612" style="enable-background:new 0 0 612 612;" xml:space="preserve">
<style type="text/css">
	.st0{fill:url(#SVGID_1_);}
	.st1{display:none;fill:#FFFFFF;}
	.st2{fill:#FFFFFF;stroke:url(#SVGID_2_);stroke-width:4;stroke-miterlimit:10;}
	.st3{fill:#FFFFFF;stroke:url(#SVGID_3_);stroke-width:4;stroke-miterlimit:10;}
</style>
<title>Clayton Seastrand</title>
<linearGradient id="SVGID_1_" gradientUnits="userSpaceOnUse" x1="33.9962" y1="42.0065" x2="562.5419" y2="554.987">
	<stop  offset="0" style="stop-color:#CC6600"/>
	<stop  offset="0.7915" style="stop-color:#990000"/>
</linearGradient>
<path class="st0" d="M612,510c0,56.1-45.9,102-102,102H102C45.9,612,0,566.1,0,510V102C0,45.9,45.9,0,102,0h408
	c56.1,0,102,45.9,102,102V510z"/>
<path class="st1" d="M166.3,133h173.5c32,0,57.7,7.3,77,22s29,36.8,29,66.5c0,18-4.4,33.4-13.2,46.2c-8.8,12.8-21.4,22.8-37.8,29.8
	v1c22,4.7,38.7,15.1,50,31.2c11.3,16.2,17,36.4,17,60.8c0,14-2.5,27.1-7.5,39.2c-5,12.2-12.8,22.7-23.5,31.5s-24.3,15.8-41,21
	s-36.5,7.8-59.5,7.8h-164L166.3,133L166.3,133z M228.8,282.5h102c15,0,27.5-4.2,37.5-12.8s15-20.8,15-36.8c0-18-4.5-30.7-13.5-38
	s-22-11-39-11h-102L228.8,282.5L228.8,282.5z M228.8,439h110.5c19,0,33.8-4.9,44.2-14.8c10.5-9.8,15.8-23.8,15.8-41.8
	c0-17.7-5.2-31.2-15.8-40.8s-25.2-14.2-44.2-14.2H228.8V439z"/>
<g>
	<linearGradient id="SVGID_2_" gradientUnits="userSpaceOnUse" x1="100.6662" y1="98.2269" x2="380.0078" y2="369.3422">
		<stop  offset="0" style="stop-color:#CC6600"/>
		<stop  offset="0.7915" style="stop-color:#990000"/>
	</linearGradient>
	<path class="st2" d="M347.8,399.1c-17.1,8.5-56,18.5-105.7,18.5c-123.4,0-199.6-72.4-199.6-180.2c0-110.3,84.8-188.2,208.8-188.2
		c49.3,0,84.2,10,99.4,17.9l-15.4,53.2c-19.3-8.8-48-16.1-81.2-16.1c-83.8,0-140.2,48.6-140.2,130.2c0,72.6,49,127.4,138.9,127.4
		c30.6,0,62.8-6,82.8-15.1L347.8,399.1z"/>
</g>
<g>
	<linearGradient id="SVGID_3_" gradientUnits="userSpaceOnUse" x1="304.5728" y1="265.08" x2="548.5798" y2="501.9012">
		<stop  offset="0" style="stop-color:#CC6600"/>
		<stop  offset="0.7915" style="stop-color:#990000"/>
	</linearGradient>
	<path class="st3" d="M319.6,482.8c23.3,13.3,57.8,25.2,95.3,25.2c43.3,0,67.7-19,67.7-47.8c0-26-18-41.5-67.9-56.5
		c-64.6-19.2-105.1-49.2-105.1-103.8c0-58.6,51.9-102.1,131.9-102.1c43.4,0,73.8,8.6,95.1,19l-17.1,53.3
		c-13.8-6.8-41.6-18.3-79.4-18.3c-43.9,0-62,21.8-62,42.4c0,26.9,22.5,39.7,73.2,56c66.7,21.5,100,51.1,100,106
		c0,54.6-41.8,106.7-142,106.7c-40.9,0-83.7-11.6-105.7-25L319.6,482.8z"/>
</g>
</svg>
